<?xml version="1.0" encoding="UTF-8"?>
<svg version="1.1" xmlns="http://www.w3.org/2000/svg" width="67" height="64">
<path d="M0 0 C22.11 0 44.22 0 67 0 C67 21.12 67 42.24 67 64 C44.89 64 22.78 64 0 64 C0 42.88 0 21.76 0 0 Z " fill="#494949" transform="translate(0,0)"/>
<path d="M0 0 C22.11 0 44.22 0 67 0 C67 21.12 67 42.24 67 64 C44.89 64 22.78 64 0 64 C0 42.88 0 21.76 0 0 Z M7 10 C4.48558936 15.02882129 5.68682884 22.88802491 5.64990234 28.48388672 C5.63336409 30.32092984 5.60610205 32.15790918 5.56787109 33.99462891 C5.51294497 36.64779936 5.4912037 39.29946163 5.4765625 41.953125 C5.45389313 42.76896057 5.43122375 43.58479614 5.40786743 44.425354 C5.42218808 48.3139932 5.71893124 51.25769661 7.95263672 54.51782227 C12.11252262 57.90618631 15.0598298 57.85501109 20.28125 57.76171875 C21.17235474 57.76508743 22.06345947 57.76845612 22.98156738 57.77192688 C24.86098009 57.77162858 26.74044204 57.75643085 28.61962891 57.72729492 C31.49142369 57.68761849 34.35859801 57.70659127 37.23046875 57.73242188 C39.05991369 57.72486227 40.88934841 57.7139083 42.71875 57.69921875 C43.57408325 57.70620285 44.4294165 57.71318695 45.31066895 57.72038269 C49.7590443 57.61536677 51.46178434 57.44254739 55.01757812 54.51879883 C55.67177734 53.68759521 56.32597656 52.8563916 57 52 C57.33 51.67 57.66 51.34 58 51 C58.29267815 45.51543384 58.31410292 40.02824983 58.35009766 34.53662109 C58.36663637 32.68590705 58.39389899 30.83525634 58.43212891 28.98486328 C58.48696963 26.31769647 58.50878419 23.65203014 58.5234375 20.984375 C58.54610687 20.16024109 58.56877625 19.33610718 58.59213257 18.48699951 C58.57617149 14.13441837 58.41469357 12.5165378 55.59228516 9.00097656 C51.29401295 5.68315409 47.97240001 5.81024859 42.703125 5.76171875 C41.46354034 5.74961113 41.46354034 5.74961113 40.19891357 5.73725891 C38.44708352 5.72341629 36.69522648 5.71269493 34.94335938 5.70483398 C32.27421304 5.68765583 29.60631669 5.64377711 26.9375 5.59960938 C25.2343841 5.58947918 23.53125767 5.5809641 21.828125 5.57421875 C21.03416321 5.55671066 20.24020142 5.53920258 19.42218018 5.52116394 C14.16040988 5.54158319 11.17505622 6.51063708 7 10 Z " fill="#404040" transform="translate(0,0)"/>
<path d="M0 0 C0.82876144 -0.00570007 1.65752289 -0.01140015 2.51139832 -0.01727295 C4.26743288 -0.02672748 6.02348522 -0.03325873 7.77954102 -0.03710938 C10.45946471 -0.04679906 13.13861628 -0.0778109 15.81835938 -0.109375 C17.52473503 -0.11590673 19.23111617 -0.12115654 20.9375 -0.125 C21.73662308 -0.1373468 22.53574615 -0.1496936 23.35908508 -0.16241455 C27.95394173 -0.14412485 30.94405643 0.21769899 34.66796875 3.203125 C37.25201784 7.07919863 36.99172416 10.35284234 37.00390625 14.8515625 C37.01056305 15.70110504 37.01721985 16.55064758 37.02407837 17.42593384 C37.03420181 19.22306148 37.03889548 21.02022669 37.03857422 22.81738281 C37.04294178 25.56118067 37.0792474 28.30336238 37.1171875 31.046875 C37.12305694 32.79426534 37.12702548 34.54166331 37.12890625 36.2890625 C37.14327728 37.1069223 37.15764832 37.9247821 37.17245483 38.76742554 C37.14046153 42.77486233 36.96732541 44.73224673 34.76416016 48.19775391 C29.44983773 53.28182616 20.26134549 51.54967099 13.2746582 51.6081543 C11.33372211 51.6297437 9.39288362 51.66385786 7.45239258 51.71069336 C4.6527158 51.77765303 1.85505174 51.80514473 -0.9453125 51.82421875 C-2.24242912 51.86596474 -2.24242912 51.86596474 -3.56575012 51.90855408 C-8.04729861 51.89327913 -9.79654771 51.63922231 -13.37719727 48.72314453 C-16.05460626 44.79565709 -16.05415155 40.88759678 -15.99609375 36.26171875 C-16.00087738 35.41642105 -16.00566101 34.57112335 -16.0105896 33.70021057 C-16.01397865 31.92097095 -16.00484599 30.14166822 -15.98388672 28.36254883 C-15.95707029 25.64458189 -15.9836822 22.93073123 -16.015625 20.21289062 C-16.01232137 18.47915759 -16.00591611 16.74542711 -15.99609375 15.01171875 C-16.0062149 14.20327011 -16.01633606 13.39482147 -16.02676392 12.56187439 C-15.9378607 8.26887142 -15.71321054 6.67445793 -12.91552734 3.21508789 C-8.61240414 -0.13607808 -5.28775489 0.02790913 0 0 Z M-8.33203125 7.203125 C-8.43302613 9.93036779 -8.47173654 12.63175023 -8.46484375 15.359375 C-8.46580048 16.17684204 -8.4667572 16.99430908 -8.46774292 17.83654785 C-8.4684247 19.56827878 -8.46657054 21.30001224 -8.46240234 23.03173828 C-8.45705404 25.69178982 -8.46234737 28.3516725 -8.46875 31.01171875 C-8.46808922 32.69010454 -8.46680805 34.36849023 -8.46484375 36.046875 C-8.46686798 36.84790649 -8.46889221 37.64893799 -8.47097778 38.47424316 C-8.80416793 42.13894801 -8.80416793 42.13894801 -7.33203125 45.203125 C-4.67746932 45.30408064 -2.04947949 45.34283498 0.60546875 45.3359375 C1.79837524 45.33737259 1.79837524 45.33737259 3.01538086 45.33883667 C4.70003335 45.33951843 6.38468846 45.33766443 8.06933594 45.33349609 C10.65696072 45.32814775 13.24441191 45.33344119 15.83203125 45.33984375 C17.46484414 45.33918297 19.09765691 45.3379018 20.73046875 45.3359375 C21.50962646 45.33796173 22.28878418 45.33998596 23.09155273 45.34207153 C26.67591075 45.6615208 26.67591075 45.6615208 29.66796875 44.203125 C29.76896363 41.47588221 29.80767404 38.77449977 29.80078125 36.046875 C29.80173798 35.22940796 29.8026947 34.41194092 29.80368042 33.56970215 C29.8043622 31.83797122 29.80250804 30.10623776 29.79833984 28.37451172 C29.79299154 25.71446018 29.79828487 23.0545775 29.8046875 20.39453125 C29.80402672 18.71614546 29.80274555 17.03775977 29.80078125 15.359375 C29.80280548 14.55834351 29.80482971 13.75731201 29.80691528 12.93200684 C30.14010543 9.26730199 30.14010543 9.26730199 28.66796875 6.203125 C26.01340682 6.10216936 23.38541699 6.06341502 20.73046875 6.0703125 C19.93519775 6.06935577 19.13992676 6.06839905 18.32055664 6.06741333 C16.63590415 6.06673157 14.95124904 6.06858557 13.26660156 6.07275391 C10.67897678 6.07810225 8.09152559 6.07280881 5.50390625 6.06640625 C3.87109336 6.06706703 2.23828059 6.0683482 0.60546875 6.0703125 C-0.17368896 6.06828827 -0.95284668 6.06626404 -1.75561523 6.06417847 C-5.33997325 5.7447292 -5.33997325 5.7447292 -8.33203125 7.203125 Z " fill="#F1F1F1" transform="translate(21.33203125,5.796875)"/>
</svg>
