<?xml version="1.0" encoding="UTF-8"?>
<svg version="1.1" xmlns="http://www.w3.org/2000/svg" width="60" height="68">
<path d="M0 0 C19.8 0 39.6 0 60 0 C60 22.44 60 44.88 60 68 C40.2 68 20.4 68 0 68 C0 45.56 0 23.12 0 0 Z " fill="#3D3519" transform="translate(0,0)"/>
<path d="M0 0 C6.88619366 -0.79742719 6.88619366 -0.79742719 9.72070312 1.23193359 C11.35140406 2.97859777 12.80994495 4.78076044 14.25 6.6875 C14.75273437 7.31333984 15.25546875 7.93917969 15.7734375 8.58398438 C17.20467781 10.37303477 18.60367958 12.18365242 20 14 C21.33118203 15.66838543 22.6635646 17.33581973 24 19 C27.93739898 17.46432511 29.85296408 15.028822 32.4375 11.75 C33.22898438 10.76902344 34.02046875 9.78804687 34.8359375 8.77734375 C36.06842798 7.19557347 37.27869587 5.59427425 38.4140625 3.94140625 C39.5625 2.3125 39.5625 2.3125 42 0 C44.84892248 -0.48731569 47.08277522 -0.29666693 50 0 C48.67598123 2.88055007 47.19824069 5.12346694 45.1015625 7.49609375 C44.53953125 8.13740234 43.9775 8.77871094 43.3984375 9.43945312 C42.81320313 10.09880859 42.22796875 10.75816406 41.625 11.4375 C39.9184762 13.3744807 38.21440703 15.31319605 36.52050781 17.26123047 C35.20612741 18.76428397 33.86697751 20.2456099 32.5234375 21.72265625 C30.81502348 23.819863 30.81502348 23.819863 31 25.99609375 C32.34353156 28.68840505 34.05264329 30.76691804 36 33.0625 C36.80308594 34.02027344 37.60617188 34.97804687 38.43359375 35.96484375 C39.28050781 36.96644531 40.12742188 37.96804687 41 39 C42.69537967 41.03534357 44.37954041 43.07931061 46.0625 45.125 C46.81660156 46.03507812 47.57070313 46.94515625 48.34765625 47.8828125 C50 50 50 50 50 51 C46.70356774 51.67149546 45.17219339 51.92095937 42 51 C38.20172659 47.71437699 35.14600987 43.90105224 32 40 C30.7954379 38.64247764 29.58783462 37.28763665 28.375 35.9375 C26 33 26 33 26 31 C21.99568124 34.88567228 18.35363866 38.99276022 14.75 43.25 C9.07432432 49.92567568 9.07432432 49.92567568 8 51 C5.32941149 51.14115161 2.67567762 51.04247107 0 51 C4.15934492 45.26684889 8.60227803 39.84997017 13.21606445 34.48168945 C15.29834424 32.05132925 17.22197032 29.66704453 19 27 C18.49234506 22.57908156 15.58676483 19.83950636 12.75 16.625 C11.78626029 15.51319247 10.8227176 14.40121412 9.859375 13.2890625 C8.41757778 11.62991386 6.97507972 9.97159748 5.52539062 8.31933594 C2 4.22461213 2 4.22461213 2 2 C1.34 2 0.68 2 0 2 C0 1.34 0 0.68 0 0 Z " fill="#F1BD01" transform="translate(5,8)"/>
</svg>
